<svg version="1.1" viewBox="0.0 0.0 960.0 540.0" fill="none" stroke="none" stroke-linecap="square" stroke-miterlimit="10" xmlns:xlink="http://www.w3.org/1999/xlink" xmlns="http://www.w3.org/2000/svg"><clipPath id="g2ba2881cfa6_0_0.0"><path d="m0 0l960.0 0l0 540.0l-960.0 0l0 -540.0z" clip-rule="nonzero"/></clipPath><g clip-path="url(#g2ba2881cfa6_0_0.0)"><path fill="#000000" fill-opacity="0.0" d="m0 0l960.0 0l0 540.0l-960.0 0z" fill-rule="evenodd"/><path fill="#000000" d="m5.4233913 37.73803l118.55591 0l0 474.22363l-118.55591 0z" fill-rule="evenodd"/><path stroke="#efefef" stroke-width="8.0" stroke-linejoin="round" stroke-linecap="butt" d="m5.4233913 37.73803l118.55591 0l0 474.22363l-118.55591 0z" fill-rule="evenodd"/><path fill="#000000" d="m123.98442 177.87057l118.55591 0l0 193.99167l-118.55591 0z" fill-rule="evenodd"/><path stroke="#efefef" stroke-width="8.0" stroke-linejoin="round" stroke-linecap="butt" d="m123.98442 177.87057l118.55591 0l0 193.99167l-118.55591 0z" fill-rule="evenodd"/><path fill="#000000" d="m242.54544 353.90076l118.55591 0l0 158.09094l-118.55591 0z" fill-rule="evenodd"/><path stroke="#efefef" stroke-width="8.0" stroke-linejoin="round" stroke-linecap="butt" d="m242.54544 353.90076l118.55591 0l0 158.09094l-118.55591 0z" fill-rule="evenodd"/><path fill="#000000" d="m361.10648 37.73803l118.55591 0l0 474.22363l-118.55591 0z" fill-rule="evenodd"/><path stroke="#efefef" stroke-width="8.0" stroke-linejoin="round" stroke-linecap="butt" d="m361.10648 37.73803l118.55591 0l0 474.22363l-118.55591 0z" fill-rule="evenodd"/><path fill="#000000" d="m479.6675 37.73803l118.55588 0l0 158.09091l-118.55588 0z" fill-rule="evenodd"/><path stroke="#efefef" stroke-width="8.0" stroke-linejoin="round" stroke-linecap="butt" d="m479.6675 37.73803l118.55588 0l0 158.09091l-118.55588 0z" fill-rule="evenodd"/><path fill="#000000" d="m598.2285 37.73803l118.55591 0l0 474.22363l-118.55591 0z" fill-rule="evenodd"/><path stroke="#efefef" stroke-width="8.0" stroke-linejoin="round" stroke-linecap="butt" d="m598.2285 37.73803l118.55591 0l0 474.22363l-118.55591 0z" fill-rule="evenodd"/><path fill="#000000" d="m716.78955 177.87057l118.55591 0l0 193.99167l-118.55591 0z" fill-rule="evenodd"/><path stroke="#efefef" stroke-width="8.0" stroke-linejoin="round" stroke-linecap="butt" d="m716.78955 177.87057l118.55591 0l0 193.99167l-118.55591 0z" fill-rule="evenodd"/><path fill="#000000" d="m835.3506 353.90076l118.55591 0l0 158.09094l-118.55591 0z" fill-rule="evenodd"/><path stroke="#efefef" stroke-width="8.0" stroke-linejoin="round" stroke-linecap="butt" d="m835.3506 353.90076l118.55591 0l0 158.09094l-118.55591 0z" fill-rule="evenodd"/><path fill="#000000" d="m242.54544 37.73803l118.55591 0l0 158.09091l-118.55591 0z" fill-rule="evenodd"/><path stroke="#efefef" stroke-width="8.0" stroke-linejoin="round" stroke-linecap="butt" d="m242.54544 37.73803l118.55591 0l0 158.09091l-118.55591 0z" fill-rule="evenodd"/><path fill="#000000" d="m835.3506 37.73803l118.55591 0l0 158.09091l-118.55591 0z" fill-rule="evenodd"/><path stroke="#efefef" stroke-width="8.0" stroke-linejoin="round" stroke-linecap="butt" d="m835.3506 37.73803l118.55591 0l0 158.09091l-118.55591 0z" fill-rule="evenodd"/><path fill="#000000" d="m479.6675 195.8194l118.55588 0l0 316.18182l-118.55588 0z" fill-rule="evenodd"/><path stroke="#efefef" stroke-width="8.0" stroke-linejoin="round" stroke-linecap="butt" d="m479.6675 195.8194l118.55588 0l0 316.18182l-118.55588 0z" fill-rule="evenodd"/></g></svg>